<svg xmlns="http://www.w3.org/2000/svg" width="48.129" height="24.039" viewBox="0 0 48.129 24.039"><defs><style>.a{fill:#fff;}</style></defs><path class="a" d="M27.958,30.71a1.006,1.006,0,0,1-1.4-.183L17.53,20.087,8.5,30.515a1.109,1.109,0,0,1-.828.4.938.938,0,0,1-.611-.226.96.96,0,0,1,0-1.394l9.227-10.547L7.386,8.528a.966.966,0,0,1-.229-.972.892.892,0,0,1,.682-.59.987.987,0,0,1,.944.379L17.53,17.421,26.255,7.336a.951.951,0,0,1,.66-.385.892.892,0,0,1,.663.193.932.932,0,0,1,.351.611,1.018,1.018,0,0,1-.232.773L18.731,18.751,27.982,29.3A.989.989,0,0,1,27.958,30.71ZM51.119,10.019l1.513,1.528,1.528-1.528.254-.254A1.075,1.075,0,1,0,52.9,8.237l-.254.251-.254-.251a1.067,1.067,0,0,0-1.528,0h0a1.067,1.067,0,0,0,0,1.528Zm3.765,1.418a29.991,29.991,0,0,1-1.223,5.248,12.005,12.005,0,0,1,.159,4.459,11.614,11.614,0,0,1-4.685,7.708,11.44,11.44,0,0,1-8.759,1.9,12.051,12.051,0,0,1-4.279-1.65,34.231,34.231,0,0,1-5.3-.51.663.663,0,0,1-.556-.779c.092-.547.257-1.409.532-2.445.052-.2.333-.211.373-.021a6.161,6.161,0,0,0,.306,1.024,1.647,1.647,0,0,0,1.36,1c.342.049.77.1,1.268.141a12.739,12.739,0,0,1-1.742-2.075c-3.38-5.08-2.989-11.113.975-15.013a14.365,14.365,0,0,1,3.224-2.3A11.977,11.977,0,0,1,51.4,11.847a13.094,13.094,0,0,1,1.391,2.286c.131-.455.232-.865.306-1.207a.938.938,0,0,1,.083-.241c.07-.159,1.122-1.8,1.528-1.712.107.021.2.293.174.465ZM37.292,27.581a16.859,16.859,0,0,0,8.979-2.751c2.445-1.745,4.334-5.022,5.5-7.855A10.718,10.718,0,0,0,49.884,13,10.059,10.059,0,0,0,37.4,9.8a11.073,11.073,0,0,0-1.455.877,10.945,10.945,0,0,0-1.305,1.088c-3.316,3.227-3.588,8.292-.7,12.6a10.67,10.67,0,0,0,3.353,3.215Zm14.7-6.913a15.826,15.826,0,0,1-4.649,5.5,16.147,16.147,0,0,1-6.95,2.656l.422.089a9.368,9.368,0,0,0,11.14-7.946C51.968,20.863,51.977,20.765,51.99,20.667Z" transform="translate(-6.759 -6.92)"/></svg>